<?xml version="1.0" standalone="no"?>
<!DOCTYPE svg PUBLIC "-//W3C//DTD SVG 1.1//EN" "http://www.w3.org/Graphics/SVG/1.1/DTD/svg11.dtd" >
<svg xmlns="http://www.w3.org/2000/svg">
<metadata>Generated by IcoMoon</metadata>
<defs>
<font id="sell-icon" horiz-adv-x="1024">
<font-face units-per-em="1024" ascent="960" descent="-64" />
<missing-glyph horiz-adv-x="1024" />
<glyph unicode="&#x20;" horiz-adv-x="512" d="" />
<glyph unicode="&#xe900;" glyph-name="top-arrow" d="M232.727 308.364l279.273 279.273 279.273-279.273z" />
<glyph unicode="&#xe901;" glyph-name="bottom-arrow2" d="M791.273 587.636l-279.273-279.273-279.273 279.273z" />
<glyph unicode="&#xe902;" glyph-name="add_circle" d="M726 406v84h-172v172h-84v-172h-172v-84h172v-172h84v172h172zM512 874q176 0 301-125t125-301-125-301-301-125-301 125-125 301 125 301 301 125z" />
<glyph unicode="&#xe903;" glyph-name="arrow_back" d="M246.784 491.691l443.051 442.709c24.917 24.917 62.464 24.917 87.381 0s24.917-62.464 0-87.381l-399.36-399.36 399.36-399.36c24.917-24.917 24.917-62.464 0-87.381s-62.464-24.917-87.381 0l-443.051 443.392c-24.917 24.917-24.917 62.464 0 87.381z" />
<glyph unicode="&#xe904;" glyph-name="close" d="M810 686l-238-238 238-238-60-60-238 238-238-238-60 60 238 238-238 238 60 60 238-238 238 238z" />
<glyph unicode="&#xe905;" glyph-name="keyboard_arrow_right" d="M366 262l196 196-196 196 60 60 256-256-256-256z" />
<glyph unicode="&#xe906;" glyph-name="remove_circle_outline" d="M512 106q140 0 241 101t101 241-101 241-241 101-241-101-101-241 101-241 241-101zM512 874q176 0 301-125t125-301-125-301-301-125-301 125-125 301 125 301 301 125zM298 490h428v-84h-428v84z" />
<glyph unicode="&#xe907;" glyph-name="shopping_cart" d="M726 192q34 0 59-26t25-60-25-59-59-25-60 25-26 59 26 60 60 26zM42 874h140l40-84h632q18 0 30-13t12-31q0-10-6-20l-152-276q-24-44-74-44h-318l-38-70-2-6q0-10 10-10h494v-86h-512q-34 0-59 26t-25 60q0 20 10 40l58 106-154 324h-86v84zM298 192q34 0 60-26t26-60-26-59-60-25-59 25-25 59 25 60 59 26z" />
<glyph unicode="&#xe908;" glyph-name="hook" d="M900.091 741.332c-14.992 14.993-39.281 14.993-54.272 0l-471.899-471.823-164.695 164.697c-14.993 14.991-39.281 14.991-54.274 0s-14.993-39.281 0-54.273l191.832-191.833c7.497-7.497 17.317-11.245 27.137-11.245 9.821 0 19.641 3.747 27.138 11.242l499.033 498.962c14.992 14.992 14.992 39.28 0 54.273z" />
<glyph unicode="&#xe909;" glyph-name="distance" d="M512 0.988c-53.16 0-332.246 383.507-332.246 560.072 0 182.261 149.985 332.246 332.246 332.246s332.246-149.985 332.246-332.246c0-176.565-279.087-560.072-332.246-560.072zM512 855.334c-161.376 0-294.275-132.899-294.275-294.275s246.811-486.028 294.275-520.202c47.464 34.174 294.275 360.725 294.275 520.202 0 161.377-132.899 294.275-294.275 294.275zM512 418.668c-77.841 0-142.391 64.551-142.391 142.391s64.551 142.391 142.391 142.391 142.391-64.551 142.391-142.391-64.551-142.391-142.391-142.391zM512 665.479c-56.956 0-104.42-47.464-104.42-104.42s47.464-104.42 104.42-104.42 104.42 47.464 104.42 104.42-47.464 104.42-104.42 104.42z" />
<glyph unicode="&#xe90a;" glyph-name="price" d="M512.412 0.512c-246.939 0-447.117 200.179-447.117 447.117 0 246.934 200.179 447.117 447.117 447.117 246.934 0 447.117-200.183 447.117-447.117 0-246.938-200.183-447.117-447.117-447.117zM512.412 850.036c-222.245 0-402.406-180.161-402.406-402.406s180.161-402.406 402.406-402.406 402.405 180.162 402.405 402.406-180.161 402.406-402.405 402.406zM713.619 268.783h-156.495v-67.067c0-12.345-10.011-22.356-22.356-22.356h-44.711c-12.345 0-22.356 10.011-22.356 22.356v67.067h-156.495c-12.345 0-22.351 10.011-22.351 22.356v44.721c0 12.336 10.007 22.347 22.351 22.347h156.495v89.424h-156.495c-12.345 0-22.351 10.011-22.351 22.356v44.711c0 12.345 10.007 22.356 22.351 22.356h99.68l-72.106 115.584c-5.214 8.356-1.145 21.198 9.077 28.674l37.034 27.095c10.23 7.476 22.741 6.774 27.954-1.578l94.36-151.251c3.322-5.325 1.815-12.099-1.6-18.524h13.623c-3.421 6.425-4.927 13.199-1.6 18.524l94.355 151.251c5.214 8.352 17.728 9.054 27.954 1.578l37.034-27.095c10.226-7.476 14.289-20.317 9.081-28.674l-72.111-115.584h99.676c12.345 0 22.356-10.011 22.356-22.356v-44.711c0-12.345-10.011-22.356-22.356-22.356h-156.491v-89.424h156.495c12.345 0 22.351-10.011 22.351-22.347v-44.721c0.001-12.345-10.006-22.356-22.351-22.356z" />
<glyph unicode="&#xe90b;" glyph-name="sales" d="M603.234 876.141c-12.503-70.116-24.15-193.435 15.977-310.663 5.104-14.898 12.351-32.429 22.155-53.59 10.557-22.785 33.334-37.099 58.046-37.099 2.201 0 4.418 0.114 6.643 0.345 27.2 2.827 49.599 22.626 55.744 49.273 4.81 20.85 10.563 39.638 17.1 55.841 0.013 0.035 0.026 0.070 0.041 0.105 6.040 15.052 13.489 27.235 21.194 37.020 2.92-32.398 12.045-73.872 34.443-121.837 33.125-70.813 39.447-110.868 30.752-194.811-4.62-44.632-16.683-86.255-35.85-123.715-18.424-36.007-43.114-67.61-73.38-93.935-30.312-26.363-65.578-46.885-104.819-60.996-40.733-14.65-84.91-22.077-131.296-22.077-15.247 0-30.88 0.82-46.469 2.434-51.457 5.329-98.938 18.937-141.124 40.449-40.142 20.47-74.557 47.6-102.285 80.638-27.52 32.79-47.717 70.526-60.032 112.16-12.815 43.325-16.77 89.844-11.756 138.262 4.424 42.713 21.251 93.903 48.662 148.036 3.2 6.568 4.573 9.192 5.962 11.806l-1.841-3.797c6.818-23.76 14.3-43.863 22.344-60 18.569-37.342 39.917-65.85 65.265-87.155 11.043-9.333 25.441-15.006 41.165-15.006 0.009 0 0.018 0 0.027 0h-0.001c0.003 0 0.007 0 0.011 0 11.193 0 21.713 2.877 30.863 7.932l-0.329-0.167c23.125 12.567 36.2 38.010 32.954 64.127-2.71 21.818-5.514 56.451-3.465 97.549 2.039 40.893 8.408 79.687 18.93 115.292 14.156 47.87 35.085 90.162 62.201 125.702 21.514 28.195 47.096 52.42 76.037 72.001 13.205 9.074 28.337 17.706 44.181 25.063l1.951 0.813zM646.517 956.571c-1.88 0-3.779-0.166-5.677-0.504-8.628-1.558-211.048-40.873-283.35-285.356-26.317-89.064-25.088-178.655-17.602-238.883-18.647 15.673-34.45 37.113-49.149 66.68-21.902 43.914-34.060 120.194-34.181 120.965-2.108 13.036-11.77 23.345-24.276 26.379l-0.221 0.045c-2.164 0.488-4.649 0.769-7.2 0.77h-0.001c-10.45 0-20.345-4.86-26.516-13.571-3.697-5.231-90.971-129.79-103.686-252.559-23.937-231.126 130.315-416.706 372.263-441.76 17.977-1.863 35.672-2.774 53.062-2.774 218.46 0 386.841 144.040 409.005 358.13 9.904 95.616 1.76 146.854-36.44 228.518-42.242 90.453-26.942 149.55-26.376 151.676 3.394 11.546 0.133 23.943-8.496 32.303-6.146 5.926-14.229 9.125-22.466 9.125-3.38 0-6.786-0.539-10.096-1.648-2.88-0.94-71.213-24.316-105.57-109.916-8.715-21.603-15.203-44.13-20.109-65.402-7.727 16.679-14.832 33.278-19.68 47.429-53.344 155.839-2.84 327.012-2.383 328.73 0.886 2.807 1.396 6.035 1.396 9.382 0 8.225-3.082 15.73-8.154 21.423l0.028-0.032c-6.218 6.928-14.958 10.85-24.125 10.85z" />
<glyph unicode="&#xe90c;" glyph-name="sort" d="M420.56 887.014h-54.855v-774.336c-52.455 69.163-121.619 123.763-201.12 157.052v-61.968c85.838-41.402 156.538-111.338 201.12-198.221v-0.208h54.855v13.047c0.005 0.003 0.010 0.005 0.015 0.008-0.005 0.010-0.010 0.020-0.015 0.030v864.596zM658.265 886.614v0.4h-54.855v-877.68h54.855v774.142c52.458-69.179 121.632-123.79 201.15-157.078v61.961c-85.855 41.403-156.562 111.354-201.15 198.255z" />
<glyph unicode="&#xe90d;" glyph-name="speed" horiz-adv-x="1025" d="M873.498 810.178c-96.66 96.601-225.13 149.822-361.849 149.822-136.67 0-265.148-53.222-361.765-149.833-96.656-96.644-149.884-225.146-149.884-361.837-0.025-136.709 53.166-265.187 149.804-361.884 96.607-96.558 225.097-149.781 361.755-149.781 136.72 0 265.255 53.26 361.939 149.884 199.456 199.473 199.485 524.072 0 723.629zM826.343 133.706c-84.079-84.061-195.87-130.406-314.784-130.406-118.836 0-230.594 46.32-314.616 130.305-84.022 84.040-130.285 195.807-130.266 314.723 0 118.897 46.287 230.682 130.338 314.696 84.040 84.016 195.764 130.287 314.635 130.287 118.885 0 230.633-46.265 314.694-130.295 173.478-173.519 173.478-455.847 0-629.31zM732.759 322.933l-176.865 102.291v278.941c0 23.539-19.104 42.642-42.644 42.642-23.531 0-42.634-19.102-42.634-42.642v-298.474c0-15.817 19.656-29.077 32.446-36.414 3.541-5.327 13.26-10.143 19.188-13.559l175.889-106.599c20.379-11.762 42.466-4.775 54.237 15.608 11.77 20.387 0.813 46.435-19.615 58.207z" />
<glyph unicode="&#xe90e;" glyph-name="star" d="M511.999 855.773l112.43-227.813c13.081-26.088 37.784-44.677 67.129-49.066l0.493-0.061 251.401-36.532-181.922-177.323c-16.737-16.328-27.117-39.105-27.117-64.306 0-5.365 0.47-10.621 1.372-15.727l-0.079 0.541 42.949-250.39-224.86 118.215c-12.12 6.488-26.51 10.305-41.79 10.319h-0.005c-15.283-0.013-29.671-3.83-42.274-10.555l0.485 0.236-224.866-118.214 42.944 250.39c0.823 4.566 1.294 9.822 1.294 15.187 0 25.2-10.382 47.975-27.103 64.281l-0.019 0.018-181.918 177.328 251.407 36.532c29.836 4.45 54.537 23.039 67.381 48.61l0.235 0.517 112.434 227.813zM511.999 912.828c-14.784 0-29.567-7.698-37.17-23.103l-118.625-240.363c-6.037-12.041-17.438-20.621-30.982-22.646l-0.227-0.028-265.254-38.544c-33.996-4.938-47.574-46.718-22.972-70.697l191.942-187.097c7.726-7.536 12.518-18.049 12.518-29.681 0-2.475-0.217-4.9-0.633-7.256l0.036 0.25-45.313-264.184c-4.594-26.791 16.691-48.546 40.845-48.546 6.37 0 12.946 1.511 19.293 4.851l237.251 124.731c5.593 2.999 12.236 4.76 19.291 4.76s13.698-1.762 19.514-4.869l-0.223 0.109 237.249-124.731c6.352-3.341 12.925-4.851 19.294-4.851 24.15 0 45.439 21.755 40.844 48.546l-45.311 264.184c-0.381 2.109-0.598 4.537-0.598 7.015 0 11.629 4.792 22.14 12.509 29.664l0.009 0.008 191.941 187.096c24.603 23.979 11.026 65.759-22.974 70.697l-265.248 38.545c-13.772 2.053-25.173 10.633-31.101 22.436l-0.109 0.239-118.628 240.363c-7.603 15.402-22.386 23.103-37.169 23.103z" />
<glyph unicode="&#xe90f;" glyph-name="phone" d="M734.382 895.59h-440.166c0 0-63.227 0.957-63.227-63.58l-0.317-767.268c0 0-5.919-63.252 60.262-63.252h446.403c0 0 61.256-0.947 61.256 60.713v769.807c0 0 1.956 63.58-64.21 63.58zM514.135 63.165c-17.449 0-31.596 13.793-31.596 30.817 0 17.029 14.147 30.843 31.596 30.843s31.596-13.814 31.596-30.843c0-17.024-14.147-30.817-31.596-30.817zM736.691 186.486h-443.786v616.643h443.786v-616.643z" />
<glyph unicode="&#xe910;" glyph-name="discount" d="M801.866 575.503h-233.91c-5.716 0-10.359-4.648-10.359-10.359v-118.26c0-5.71 4.643-10.358 10.359-10.358h233.91c5.715 0 10.358 4.648 10.358 10.358v118.26c0.001 5.711-4.643 10.359-10.358 10.359zM605.929 490.911c-10.014 0-18.127 8.118-18.127 18.122 0 10.014 8.113 18.127 18.127 18.127s18.128-8.113 18.128-18.127c0-10.004-8.114-18.122-18.128-18.122zM525.653 959.402c-245.039 0-443.683-198.644-443.683-443.682s198.644-443.681 443.683-443.681c245.038 0 443.686 198.642 443.686 443.681s-198.648 443.682-443.686 443.682zM772.531 326.904c0-34.272-27.878-62.149-62.149-62.149h-388.436c-34.272 0-62.149 27.878-62.149 62.149v364.265c0 35.429 28.94 62.149 67.329 62.149h388.436c30.347 0 56.971-29.042 56.971-62.149v-65.599h-20.716v65.599c0 23.716-19.139 41.433-36.255 41.433h-388.436c-27.009 0-46.613-17.424-46.613-41.433v-364.265c0-22.845 18.582-41.434 41.434-41.434h388.436c22.84 0 41.434 18.588 41.434 41.434v62.155h20.716v-62.155zM832.942 446.884c0-17.135-13.939-31.075-31.075-31.075h-233.911c-17.136 0-31.076 13.939-31.076 31.075v118.26c0 17.136 13.939 31.075 31.076 31.075h233.91c17.135 0 31.075-13.938 31.075-31.075v-118.26z" />
<glyph unicode="&#xe911;" glyph-name="points" d="M512 908.8c-254.495 0-460.8-206.31-460.8-460.8 0-254.495 206.305-460.8 460.8-460.8s460.8 206.305 460.8 460.8c0 254.49-206.305 460.8-460.8 460.8zM332.585 597.484c0 10.752 8.028 20.721 24.069 29.901 16.036 9.185 37.857 16.461 65.403 21.847 27.576 5.366 57.559 8.054 89.943 8.054 32.389 0 62.367-2.688 89.917-8.054 27.546-5.386 49.372-12.662 65.403-21.847 16.031-9.18 24.064-19.149 24.064-29.901v-29.875c0-10.757-8.033-20.721-24.064-29.906-16.036-9.185-37.862-16.481-65.403-21.847-27.551-5.361-57.523-8.054-89.917-8.054-32.384 0-62.367 2.668-89.943 8.028-27.546 5.371-49.367 12.636-65.403 21.847-16.036 9.185-24.069 19.149-24.069 29.901v29.906zM691.384 517.617v-39.711c0-10.757-8.033-20.721-24.064-29.906-16.036-9.175-37.862-16.481-65.403-21.852-27.551-5.356-57.523-8.049-89.917-8.049-32.384 0-62.367 2.693-89.917 8.049-27.551 5.396-49.367 12.677-65.403 21.852-16.036 9.185-24.064 19.149-24.064 29.906v39.711c18.519-13.082 43.817-22.994 75.889-29.665 32.097-6.697 66.58-10.045 103.496-10.045 36.91 0 71.393 3.348 103.465 10.045 32.082 6.692 57.4 16.584 75.919 29.665zM691.384 298.522c0-10.757-8.033-20.731-24.064-29.906-16.036-9.185-37.862-16.451-65.403-21.847-27.551-5.361-57.523-8.059-89.917-8.059-32.384 0-62.367 2.668-89.917 8.028-27.551 5.391-49.367 12.672-65.403 21.852-16.036 9.17-24.064 19.149-24.064 29.901v39.711c18.519-13.082 43.817-22.938 75.889-29.635 32.097-6.702 66.58-10.045 103.496-10.045 36.91 0 71.393 3.343 103.465 10.045 32.082 6.697 57.4 16.584 75.919 29.66v-39.706zM691.41 388.193c0-10.752-8.023-20.726-24.069-29.901-16.036-9.175-37.857-16.486-65.398-21.852-27.546-5.361-57.528-8.054-89.912-8.054-32.389 0-62.372 2.693-89.943 8.054-27.551 5.396-49.367 12.677-65.403 21.852s-24.064 19.149-24.064 29.901v39.716c18.519-13.082 43.817-22.963 75.889-29.67 32.097-6.702 66.58-10.045 103.496-10.045 36.91 0 71.393 3.343 103.491 10.045 32.077 6.707 57.405 16.589 75.919 29.67v-39.716z" />
<glyph unicode="&#xe912;" glyph-name="my-order" d="M830.607 852.147h-288.173c-5.205-13.474-18.394-23.050-33.852-23.050s-28.647 9.575-33.852 23.050h-287.549c-15.364 0-27.819-12.455-27.819-27.819v-812.569c0-15.364 12.455-27.819 27.819-27.819h643.426c15.364 0 27.819 12.455 27.819 27.819v812.569c0 15.364-12.455 27.819-27.819 27.819zM315.264 167.797c-0.001-17.677-14.397-32.068-32.087-32.068h-6.986c-17.689 0-32.081 14.391-32.081 32.068v6.985c0 17.674 14.392 32.083 32.081 32.083h6.986c17.689 0 32.087-14.408 32.087-32.083v-6.985zM315.264 310.052c-0.001-17.672-14.397-32.069-32.087-32.069h-6.986c-17.689 0-32.081 14.397-32.081 32.069v7.003c0 17.673 14.392 32.099 32.081 32.099h6.986c17.689 0 32.087-14.426 32.087-32.099v-7.003zM315.264 452.357c-0.001-17.691-14.397-32.083-32.087-32.083h-6.986c-17.689 0-32.081 14.392-32.081 32.083v6.971c0 17.674 14.392 32.081 32.081 32.081h6.986c17.689 0 32.087-14.408 32.087-32.081v-6.971zM315.264 594.619c-0.001-17.695-14.397-32.074-32.087-32.074h-6.986c-17.689 0-32.081 14.38-32.081 32.074v6.981c0 17.676 14.392 32.069 32.081 32.069h6.986c17.689 0 32.087-14.393 32.087-32.069v-6.981zM771.835 153.559l-385.419-0.076c-9.825 0-17.792 7.941-17.792 17.785 0 9.811 7.968 17.766 17.792 17.766l385.419 0.076c9.814 0 17.785-7.959 17.785-17.783 0-9.796-7.953-17.767-17.785-17.767zM771.835 295.814l-385.419-0.076c-9.825 0-17.792 7.971-17.792 17.783s7.968 17.801 17.792 17.801l385.419 0.075c9.814 0 17.785-7.989 17.785-17.8 0-9.807-7.953-17.783-17.785-17.783zM771.835 438.086l-385.412-0.071c-9.825 0-17.786 7.971-17.786 17.796 0 9.813 7.96 17.767 17.786 17.767l385.412 0.076c9.814 0 17.785-7.941 17.785-17.767 0-9.841-7.953-17.801-17.785-17.801zM771.835 580.376l-385.412-0.076c-9.825 0-17.786 7.957-17.786 17.783 0 9.83 7.96 17.767 17.786 17.767l385.412 0.081c9.814 0 17.785-7.959 17.785-17.783 0-9.811-7.953-17.771-17.785-17.771zM795.547 882.601h-214.222c3.161-11.577 3.759-24.175 0.005-35.567h214.217c29.427 0 53.365-23.944 53.365-53.338v-746.917c0-29.437-23.938-53.348-53.365-53.348h-569.228c-29.427 0-53.364 23.91-53.364 53.348v746.915c0 29.394 23.936 53.338 53.364 53.338h211.554c-3.741 11.394-2.867 23.992 0.285 35.567h-211.84c-49.039 0-88.942-39.888-88.942-88.908v-746.917c0-49.032 39.903-88.932 88.942-88.932h569.228c49.039 0 88.943 39.901 88.943 88.932v746.919c-0.001 49.020-39.906 88.906-88.943 88.906v0zM508.161 829.42c-48.902 0-70.002-6.141-70.002 35.265 0 39.238 32.257 71.422 71.492 71.422 39.244 0 71.154-31.917 71.154-71.153 0-39.204-22.491-35.534-72.644-35.534v0zM509.652 900.403c-19.618 0-35.574-15.943-35.574-35.585 0-19.591 15.955-35.534 35.574-35.534 19.61 0 35.579 15.943 35.579 35.534 0 19.64-15.97 35.585-35.579 35.585v0z" />
<glyph unicode="&#xe913;" glyph-name="points-mall" d="M961.8 85.1l-45 730.2c-3 46.5-42 82.5-90 82.5h-632.7c-48 0-87-36-90-82.5l-42-730.2c-1.5-22.5 7.5-45 22.5-61.5s37.5-25.5 60-25.5h734.7c24 0 45 9 60 25.5 16.5 16.6 24 39.1 22.5 61.5zM512 559c-99 0-178.4 79.5-178.4 178.4h356.9c-0.1-99-79.6-178.4-178.5-178.4z" />
<glyph unicode="&#xe914;" glyph-name="service-center" d="M910.362 12.416c-174.285 70.528-298.752 16-377.37-28.544v163.149c153.549 8.576 301.389 95.386 373.018 220.518 86.4 134.861 123.034 339.251 62.438 461.722-5.862 11.366-52.762 13.875-113.485 13.875-50.611 0-111.309-8.755-151.142-31.846-54.912 91.827-104.243 119.014-157.722 141.67-13.363 6.682-34.944 7.040-39.373 7.040-14.387 0-26.701-2.355-34.765-6.195-64.742-24.294-113.178-56.525-160.794-142.285-40.55 23.040-100.736 31.795-150.451 31.795-60.493 0-96.205-11.341-106.317-34.048-53.606-125.133-30.746-306.765 55.014-440.678 72.141-126.106 241.92-212.941 395.52-221.542v-163.123c-78.618 44.518-246.912 99.021-421.171 28.518-13.133-5.325-18.688 1.178-12.544-11.29l0.077-0.179c5.914-12.006 20.429-16.922 33.101-11.827 187.11 75.085 336.742-11.392 387.558-47.59 4.634-3.661 10.291-5.53 16.051-5.53 5.734-0.026 11.418 1.843 16.051 5.53 50.816 36.198 200.448 122.675 387.584 47.59 12.646-5.069 27.187-0.154 33.075 11.827l0.077 0.179c6.144 12.467 0.589 5.965-12.544 11.29h-21.888z" />
<glyph unicode="&#xe915;" glyph-name="good" d="M853.333 128.99c0-50.244-40.755-90.999-91.022-90.999h-364.089c-0.114 0-0.228 0.023-0.364 0.023h-112.868c-0.182 0-0.364-0.023-0.546-0.023h-159.289v500.622h159.289c2.844 0 5.552-0.546 8.329-0.819 28.444 81.92 68.54 195.447 84.878 232.949 25.623 58.914 47.969 78.052 88.815 86.471 40.619 8.351 168.892-51.246 129.161-209.237-4.096-16.293-9.899-39.481-15.997-63.852h250.948c50.267 0 68.267-40.755 68.267-91.045l-45.511-364.089zM261.689 493.102l-91.022 0.023v-409.646l113.778 0.046v405.049l0.865 3.868c0.205 0.569-0.205-0.569 0 0-4.665 1.57-18.432 0.66-23.62 0.66zM807.822 538.613h-284.444l34.133 136.556c19.069 83.945-49.607 134.44-68.267 136.533-13.062 1.456-50.176-5.211-68.267-45.534-11.833-26.374-64.080-171.19-91.546-247.785 0.091-0.865 0.501-1.616 0.501-2.503v-432.356l432.356-0.046c25.122 0 45.511 20.389 45.511 45.534l45.511 364.089c0.023 25.145-20.366 45.511-45.488 45.511z" />
<glyph unicode="&#xe916;" glyph-name="alarm" d="M506.839 9.928c-224.547 0-407.231 182.682-407.231 407.212 0 224.533 182.684 407.217 407.231 407.217 224.535 0 407.219-182.684 407.219-407.217 0-224.53-182.684-407.212-407.219-407.212zM506.839 769.746c-194.428 0-352.62-158.178-352.62-352.606 0-194.424 158.192-352.603 352.62-352.603 194.43 0 352.608 158.179 352.608 352.603 0 194.428-158.178 352.606-352.608 352.606zM362.313 148.026c-2.28 0-4.6 0.56-6.719 1.761-96.142 54.529-155.859 156.983-155.859 267.353 0 7.545 6.106 13.651 13.653 13.651 7.546 0 13.652-6.106 13.652-13.651 0-100.556 54.425-193.891 142.020-243.595 6.559-3.705 8.866-12.051 5.146-18.612-2.519-4.427-7.132-6.907-11.893-6.907zM480.095 111.229c-0.413 0-0.814 0.026-1.24 0.052-5.907 0.533-11.747 1.227-17.532 2.107-7.466 1.122-12.599 8.054-11.493 15.519 1.119 7.44 8.052 12.506 15.519 11.492 5.28-0.799 10.586-1.439 15.959-1.919 7.506-0.667 13.039-7.307 12.373-14.826-0.641-7.094-6.6-12.426-13.586-12.426zM172.683 600.888c-5.040 0-10.146 1.387-14.706 4.306-45.358 29.065-72.437 78.542-72.437 132.38 0 86.648 70.503 157.138 157.152 157.138 63.303 0 120.127-37.665 144.778-95.941 5.88-13.892-0.614-29.918-14.506-35.785-13.932-5.867-29.918 0.626-35.785 14.505-16.093 38.038-53.184 62.61-94.488 62.61-56.544 0-102.541-45.998-102.541-102.527 0-35.132 17.679-67.424 47.291-86.382 12.692-8.133 16.398-25.025 8.266-37.731-5.212-8.132-14.024-12.572-23.024-12.572zM851.315 600.888c-9 0-17.812 4.44-23.025 12.573-8.133 12.706-4.426 29.598 8.266 37.731 29.612 18.959 47.291 51.25 47.291 86.382 0 56.531-45.998 102.527-102.541 102.527-41.305 0-78.395-24.572-94.488-62.61-5.867-13.879-21.879-20.385-35.785-14.505-13.892 5.867-20.386 21.893-14.506 35.785 24.652 58.277 81.476 95.941 144.778 95.941 86.648 0 157.151-70.489 157.151-157.138 0-53.837-27.079-103.314-72.436-132.38-4.559-2.921-9.664-4.307-14.705-4.307zM219.041 1.288c-5.773 0-11.599 1.841-16.546 5.626-11.986 9.146-14.279 26.292-5.12 38.264l59.81 78.262c9.146 12 26.265 14.32 38.264 5.121 11.986-9.146 14.279-26.292 5.12-38.264l-59.81-78.262c-5.372-7.039-13.492-10.747-21.719-10.747zM785.518 1.288c-8.225 0-16.346 3.707-21.719 10.747l-59.81 78.262c-9.16 11.972-6.866 29.118 5.12 38.264 11.986 9.2 29.105 6.88 38.264-5.121l59.811-78.262c9.159-11.972 6.865-29.118-5.121-38.264-4.947-3.785-10.772-5.626-16.546-5.626zM584.329 304.612c-7.040 0-14.066 2.707-19.413 8.107l-73.649 78.635c-5.066 5.106-3.773 12.014-3.773 19.199v215.907c0 15.079 12.226 27.305 27.306 27.305s27.306-12.225 27.306-27.305v-204.682l65.769-70.662c10.586-10.721 8.439-28.013-2.28-38.611-5.333-5.267-14.332-7.893-21.265-7.893z" />
<glyph unicode="&#xe917;" glyph-name="special-price" d="M921.738 496.951l-311.245-531.618c-10.434-17.641-29.361-29.286-51.008-29.286-10.888 0-21.087 2.946-29.845 8.085l0.278-0.151-406.067 234.436c-17.823 10.396-29.61 29.424-29.61 51.206 0 10.917 2.961 21.143 8.124 29.918l-0.151-0.277 309.176 532.965c6.558 11.58 16.746 20.457 28.994 25.194l0.387 0.131 349.257 138.012c6.442 2.625 13.917 4.149 21.747 4.149 29.392 0 53.77-21.467 58.31-49.577l0.045-0.339 58.998-373.825c0.52-2.887 0.817-6.211 0.817-9.603 0-10.872-3.053-21.031-8.348-29.667l0.141 0.248zM873.736 552.023l-45.874 301.491c-2.161 23.052-21.415 40.952-44.849 40.952-7.010 0-13.645-1.601-19.561-4.458l0.269 0.117-280.86-112.716c-10.648-4.659-19.204-12.453-24.694-22.204l-0.134-0.26-276.722-477.29c-4.709-7.673-7.499-16.964-7.499-26.906 0-4.084 0.471-8.058 1.36-11.871l-0.069 0.352c2.547-12.872 10.453-23.519 21.245-29.699l0.214-0.113 325.078-187.687c22.523-13.006 52.258-3.819 66.565 20.608l278.377 476.202c4.744 7.707 7.554 17.044 7.554 27.037 0 2.274-0.146 4.515-0.428 6.712l0.027-0.26zM587.91 508.951c-35.59 20.823-59.117 58.86-59.117 102.392 0 65.298 52.934 118.232 118.232 118.232s118.232-52.934 118.232-118.232c0-21.767-5.882-42.161-16.144-59.677l0.302 0.558c-20.836-35.58-58.874-59.097-102.405-59.097-21.759 0-42.145 5.876-59.659 16.127l0.559-0.302zM676.584 662.535c-8.479 4.98-18.676 7.921-29.56 7.921-32.649 0-59.116-26.467-59.116-59.116s26.467-59.116 59.116-59.116c21.766 0 40.785 11.763 51.045 29.279l0.151 0.279c4.979 8.479 7.92 18.675 7.92 29.557 0 21.765-11.762 40.783-29.277 51.044l-0.279 0.151zM560.421 312.326c-8.513 4.895-11.646 27.193-11.646 27.193s20.868 8.43 29.381 3.547c5.474-3.093 9.108-8.873 9.108-15.502 0-9.801-7.945-17.747-17.747-17.747-3.358 0-6.498 0.933-9.176 2.553l0.079-0.045zM521.405 280.238c3.154 5.216 8.795 8.65 15.238 8.65 9.801 0 17.747-7.945 17.747-17.747 0-3.172-0.832-6.15-2.29-8.727l0.046 0.088c-15.549-26.978-44.23-44.846-77.086-44.846-48.973 0-88.674 39.701-88.674 88.674 0 16.532 4.524 32.007 12.401 45.254l-0.225-0.408c3.027 5.699 8.925 9.514 15.715 9.514 9.795 0 17.735-7.94 17.735-17.735 0-3.531-1.032-6.821-2.81-9.584l0.042 0.070c-4.481-7.631-7.127-16.808-7.127-26.602 0-29.386 23.822-53.208 53.208-53.208 19.592 0 36.71 10.589 45.945 26.355l0.136 0.251zM437.519 383.265c-5.336 3.124-8.864 8.828-8.864 15.357 0 9.795 7.94 17.735 17.735 17.735s17.735-7.94 17.735-17.735c0-3.259-0.879-6.313-2.414-8.938l0.045 0.084c-3.122-5.346-8.831-8.881-15.367-8.881-3.266 0-6.326 0.883-8.955 2.423l0.084-0.045z" />
<glyph unicode="&#xe918;" glyph-name="elem" d="M522.26 154.023c-119.952-6.503-225.484 65.708-271.489 164.157-50.558 108.175-41.025 214.985 31.162 310.305 68.815 90.875 164.47 126.976 277.749 113.446 56.231-6.718 105.806-29.805 149.025-66.485 23.45-19.915 22.926-28.814-3.071-43.731-22.59-12.969-45.292-25.734-67.762-38.908-62.13-36.396-124.643-72.162-186.047-109.757-32.882-20.119-39.46-52.222-21.082-85.525 19.884-36.018 58.43-44.404 99.27-20.791 121.358 70.18 242.307 141.060 364.048 210.582 20.144 11.502 22.356 23.203 13.405 42.693-31.49 68.574-77.871 124.899-140.016 167.036-137.326 93.105-283.85 108.022-433.898 37.297-149.691-70.561-231.003-194.467-244.519-357.766-11.201-135.382 40.311-250.002 138.028-344.331 136.242-131.516 363.933-152.207 520.427-46.479 40.748 27.522 40.748 27.522 15.484 69.554-27.318 45.439-54.425 53.886-101.849 31.15-44.873-21.502-91.386-35.477-138.86-32.437zM934.183 346.407c-2.257 32.522-19.89 58.941-35.11 86.177-4.969 8.895-12.941 5.474-20.055 1.414-27.894-15.969-55.702-32.076-83.808-47.655-11.947-6.623-14.059-14.644-7.153-26.287 16.007-26.98 31.899-54.033 47.244-81.386 6.669-11.883 14.668-14.603 26.178-7.323 16.807 10.623 34.156 20.478 50.382 31.916 14.432 10.189 22.914 24.505 22.319 43.149z" />
<glyph unicode="&#xe919;" glyph-name="discover" d="M512 874.667c-234.667 0-426.667-192-426.667-426.667s192-426.667 426.667-426.667c234.667 0 426.667 192 426.667 426.667s-192 426.667-426.667 426.667zM512 64c-211.2 0-384 172.8-384 384s172.8 384 384 384 384-172.8 384-384-172.8-384-384-384zM512 405.333c23.467 0 42.667 19.2 42.667 42.667s-19.2 42.667-42.667 42.667-42.667-19.2-42.667-42.667 19.2-42.667 42.667-42.667zM723.2 680.533c-2.134 0-6.4 0-8.533-2.133l-275.2-108.8c-21.333-8.534-38.4-25.6-46.934-46.933l-108.8-275.2c-6.4-14.934 4.267-29.867 19.2-29.867 2.133 0 6.399 0 8.533 2.134l275.2 108.8c21.333 8.533 38.399 25.601 46.933 46.934l108.801 275.2c6.4 14.932-4.266 29.865-19.2 29.865zM593.066 390.4c-4.267-10.667-12.8-19.2-23.467-23.467l-228.266-91.733 91.733 228.267c4.267 10.667 12.8 19.2 23.467 23.467l228.267 91.733-91.734-228.267z" />
<glyph unicode="&#xe91a;" glyph-name="discover-active" d="M512.002 827.85c-211.321 0-380.726-171.152-380.726-380.726 0-209.57 171.152-378.974 378.979-378.974 211.317 0 382.468 169.401 382.468 378.974 0 209.574-171.151 380.726-380.721 380.726v0zM730.306 633.994l-129.236-265.457c-3.494-5.24-6.987-10.481-12.227-12.227l-261.966-125.743c-3.49-1.747-6.984-3.494-10.478-3.494-6.987 0-13.97 1.747-19.211 6.987-8.734 6.984-10.477 19.212-5.24 29.688l127.49 267.207c1.747 5.24 6.987 10.477 12.227 12.224l263.713 123.999c10.477 5.236 22.701 3.494 29.688-5.24 8.734-8.734 10.481-20.957 5.24-27.944v0zM512.002 499.52c-29.692 0-52.396-22.704-52.396-52.396 0-29.687 22.704-52.392 52.396-52.392 27.94 0 52.392 22.705 52.392 52.392 0 29.692-24.452 52.396-52.392 52.396v0z" />
<glyph unicode="&#xe91b;" glyph-name="order" d="M804.316 9.111c40.425 0 73.239 32.75 73.239 73.047v731.109c0 40.297-32.814 73.111-73.239 73.111h-584.759c-40.297 0-73.111-32.814-73.111-73.111v-731.109c0-40.297 32.814-73.047 73.111-73.047h584.759zM804.316-64h-584.759c-80.723 0-146.222 65.435-146.222 146.158v731.109c0 80.723 65.435 146.094 146.222 146.094h584.759c80.851 0 146.286-65.371 146.286-146.094v-731.109c0-80.723-65.435-146.158-146.286-146.158v0zM767.856 447.712h-511.712c-20.149 0-36.523 16.375-36.523 36.523s16.375 36.523 36.523 36.523h511.712c20.149 0 36.459-16.375 36.459-36.523s-16.311-36.523-36.459-36.523v0zM767.856 666.981h-511.712c-20.149 0-36.523 16.375-36.523 36.587 0 20.149 16.375 36.523 36.523 36.523h511.712c20.149 0 36.459-16.375 36.459-36.523 0-20.213-16.311-36.587-36.459-36.587v0zM585.111 228.444h-328.967c-20.149 0-36.523 16.311-36.523 36.523s16.375 36.587 36.523 36.587h328.967c20.213 0 36.587-16.375 36.587-36.587s-16.375-36.523-36.587-36.523v0z" />
<glyph unicode="&#xe91c;" glyph-name="order-active" d="M191.918-40.16h650.882c53.904 0 97.628 43.725 97.628 97.646v781.030c0 53.94-43.724 97.645-97.628 97.645h-650.882c-53.904 0-97.646-43.705-97.646-97.645v-781.030c-0.001-53.923 43.742-97.646 97.646-97.646zM257.026 675.796h520.664c17.968 0 32.537-14.535 32.537-32.537 0-17.969-14.568-32.539-32.537-32.539h-520.664c-17.968 0-32.537 14.57-32.537 32.539 0.001 18.002 14.569 32.537 32.537 32.537zM257.026 480.538h520.664c17.968 0 32.537-14.57 32.537-32.538s-14.568-32.537-32.537-32.537h-520.664c-17.968 0-32.537 14.569-32.537 32.537s14.569 32.538 32.537 32.538zM257.026 285.28h325.442c17.968 0 32.537-14.568 32.537-32.537 0-18.003-14.569-32.571-32.537-32.571h-325.441c-17.968 0-32.537 14.569-32.537 32.571 0 17.969 14.568 32.537 32.536 32.537z" />
<glyph unicode="&#xe91d;" glyph-name="user" d="M689.423 359.255l-2.578 1.159c-6.247 2.866-12.593 5.538-19.002 8.052-6.989 2.802-14.107 5.378-21.287 7.827-5.732 1.868-11.432 3.608-17.231 5.314-8.793 2.543-17.747 4.863-26.924 6.891-3.124 0.675-6.28 1.255-9.437 1.835l-2.19 0.418c-5.41 1.062-10.886 1.997-16.36 2.802l-1.577 0.258c-0.096 0-0.129 0.032-0.193 0.032l-1.577 0.193c-4.606 0.675-9.115 1.353-13.881 1.899l-16.102 1.319c-19.839 1.319-40.258 1.255-59.839-0.16l-8.342-0.709-6.698-0.611c-6.118-0.675-12.205-1.513-18.293-2.479l-1.804-0.224c-4.123-0.675-8.309-1.481-12.368-2.221-4.541-0.804-9.051-1.739-13.559-2.706-8.696-1.932-17.296-4.155-25.635-6.602-6.667-1.899-13.237-4.026-19.388-6.118l-4.252-1.546c-13.108-4.639-26.086-9.952-38.712-15.749l-3.286-1.546-0.064-0.096c-147.217-70.468-242.159-220.615-242.159-383.483 0-3.737 0.224-7.406 0.482-11.11l1.095-25.893h847.451l1.126 25.571c0.258 3.768 0.482 7.505 0.482 11.401 0 165.475-97.233 316.911-247.894 386.285zM128.191-22.456c1.77 146.251 88.28 280.42 220.065 342.227l4.252 1.675 0.482 0.482c10.337 4.703 20.965 9.018 31.821 12.819l3.382 1.191c5.894 2.028 11.788 3.897 17.876 5.667 7.569 2.221 15.298 4.219 23.028 5.958 4.026 0.869 8.052 1.675 12.175 2.449 3.286 0.611 6.538 1.224 9.824 1.739l1.61 0.289c5.989 0.933 11.948 1.804 17.842 2.449l13.592 1.159c17.811 1.288 34.815 1.513 55.427 0l13.206-1.095c3.286-0.353 6.538-0.773 10.499-1.384l4.734-0.675c4.992-0.74 9.952-1.61 14.944-2.513l2.286-0.482c2.802-0.515 5.603-1.031 8.245-1.61 8.149-1.804 16.231-3.897 24.187-6.216 5.281-1.546 10.499-3.124 15.587-4.799 6.505-2.157 12.915-4.51 19.259-7.020 6.054-2.383 12.076-4.96 18.036-7.665l1.031-0.515c134.817-61.837 222.354-196.459 224.125-344.127h-767.515zM409.29 450.657c3.124-1.353 6.345-2.479 9.566-3.608l6.731-2.449c2.609-0.997 5.216-1.997 7.858-2.802 24.8-7.794 50.693-11.819 77.038-12.012l2.092-0.032c9.018 0 18.1 0.482 26.796 1.384 2.964 0.289 5.894 0.773 8.793 1.255l6.473 0.966c3.673 0.482 7.342 0.997 11.175 1.77 2.578 0.547 5.152 1.224 7.665 1.899l7.118 1.804c3.51 0.837 6.989 1.706 10.499 2.802 2.126 0.675 4.252 1.448 6.345 2.254l5.732 2.028c4.059 1.417 8.18 2.9 12.304 4.606 1.577 0.675 3.188 1.448 4.67 2.19l1.868 0.933c5.603 2.513 11.272 5.056 16.811 8.052l3.575 2.157c6.216 3.51 12.433 7.182 18.744 11.465 3.286 2.221 6.376 4.67 9.469 7.149l10.628 8.278c61.129 50.595 96.266 124.897 96.266 201.936l0.129 2.221c0 146.186-118.907 265.092-265.122 265.092-139.553 0-255.654-109.15-264.319-248.441l-0.224-3.382c-0.322-4.381-0.58-8.76-0.58-13.237 0-106.83 63.513-202.709 161.9-244.286zM289.448 705.283l0.224 3.737c7.312 117.458 105.219 209.471 222.836 209.471 123.289 0 223.578-100.291 223.707-221.676l-0.129-2.19c-0.064-66.474-29.728-129.148-81.579-172.142l-9.888-7.505c-2.157-1.77-4.412-3.575-7.182-5.474-4.96-3.415-10.242-6.44-15.587-9.502l-2.995-1.804c-4.445-2.414-9.211-4.541-14.074-6.731l-5.538-2.673c-3.157-1.319-6.44-2.449-9.76-3.575l-6.86-2.479c-1.319-0.547-2.642-1.062-3.995-1.448-2.543-0.773-5.152-1.384-7.763-2.028l-8.309-2.126c-1.804-0.482-3.51-0.966-5.088-1.288-2.771-0.58-5.603-0.933-8.438-1.319l-7.892-1.159c-1.932-0.322-3.833-0.675-5.989-0.902-6.891-0.74-13.881-1.095-20.934-1.191l-1.899 0.032c-22.739 0-45.088 3.382-66.443 10.080-1.868 0.58-3.639 1.319-5.474 1.997l-7.794 2.835c-2.449 0.837-4.863 1.675-7.182 2.642-82.931 35.073-136.525 115.943-136.525 206.026 0 3.544 0.322 6.956 0.547 10.402z" />
<glyph unicode="&#xe91e;" glyph-name="user-active" d="M235.547 684.914c0-152.033 123.248-275.281 275.281-275.281s275.281 123.248 275.281 275.281v0c0 152.033-123.248 275.281-275.281 275.281s-275.281-123.248-275.281-275.281v0zM37.39-63.804c0 261.472 211.965 473.438 473.438 473.438s473.438-211.965 473.438-473.438h-946.876z" />
<glyph unicode="&#xe91f;" glyph-name="vip" horiz-adv-x="1210" d="M1147.362 587.227c-13.799-1.908-19.849-7.19-23.689-20.361-40.071-137.292-80.862-274.374-121.468-411.526-1.652-5.631-3.444-11.263-5.399-16.824-3.653-10.378-11.565-15.218-22.362-15.893-3.84-0.256-7.679-0.116-11.542-0.116h-714.544c-27.272 0-31.344 2.909-38.907 28.366-41.769 140.735-83.585 281.471-125.052 422.299-2.49 8.4-5.724 11.612-15.149 12.798-41.862 5.189-69.321 35.323-69.274 74.161 0.070 36.464 28.878 67.668 67.156 72.741 34.835 4.631 70.856-18.942 80.49-52.892 6.632-23.34 2.49-44.934-11.937-64.597-2.955-4.026-6.143-7.912-9.913-12.775 10.215-6.26 19.872-12.31 29.622-18.174 64.899-39.070 129.752-78.14 194.698-117.070 20.733-12.403 27.295-10.704 38.628 9.61 60.85 109.089 121.654 218.177 182.435 327.289 2.001 3.607 3.677 7.4 5.422 10.983-49.89 36.766-60.781 82.259-28.761 118.35 29.39 33.113 79.28 35.184 110.508 4.607 36.999-36.231 29.227-76.302-24.829-123.469 14.73-26.528 29.553-53.381 44.468-80.188 46.609-83.678 93.265-167.333 139.898-251.011 15.963-28.668 20.128-29.785 48.145-12.891l205.472 123.865c4.305 2.606 8.47 5.422 13.357 8.54-20.454 21.199-29.739 44.957-23.153 73.37 8.4 36.184 43.957 60.757 81.491 56.313 38-4.514 66.807-35.812 66.831-72.578 0.023-37.232-25.271-67.738-62.642-72.927zM263.274 46.159c22.153 1.094 44.399 1.001 66.621 1.024 200.841 0.070 401.682 0.070 602.524-0.047 8.912 0 18.104-0.116 26.714-2.071 27.644-6.283 46.307-32.694 42.747-59.175-3.933-29.343-27.97-49.658-59.757-49.727-80.769-0.163-161.515-0.047-242.285-0.047h-93.591c-110.252 0-220.504-0.070-330.756 0.116-9.285 0.023-18.942 0.698-27.831 3.165-25.178 7.027-42.118 32.252-39.326 56.825 3.258 28.668 24.433 48.448 54.94 49.937z" />
<glyph unicode="&#xe920;" glyph-name="dialog" d="M835.629 711.021h-616.219c-7.74 0-14.006-6.264-14.006-14.005 0-7.727 6.265-13.998 14.006-13.998h616.22c7.74 0 14.006 6.271 14.006 13.998-0.002 7.741-6.266 14.005-14.007 14.005zM835.629 570.979h-616.219c-7.74 0-14.006-6.278-14.006-14.012 0-7.727 6.265-13.998 14.006-13.998h616.22c7.74 0 14.006 6.271 14.006 13.998-0.002 7.734-6.266 14.012-14.007 14.012zM835.629 430.929h-616.219c-7.74 0-14.006-6.278-14.006-14.007 0-7.734 6.265-14.005 14.006-14.005h616.22c7.74 0 14.006 6.271 14.006 14.005-0.002 7.729-6.266 14.007-14.007 14.007zM908.732 865.077h-762.425c-36.914 0-66.948-30.034-66.948-66.948v-482.318c0-36.92 30.034-66.948 66.948-66.948h132.199c21.472 0 38.938-17.465 38.938-38.939v-145.576l204.33 175.144c7.046 6.036 16.029 9.367 25.332 9.367h361.627c36.913 0 66.947 30.029 66.947 66.949v482.32c-0.001 36.913-30.035 66.948-66.948 66.948zM947.67 315.811c0-21.472-17.466-38.946-38.938-38.946h-361.627c-15.974 0-31.455-5.717-43.56-16.118l-158.091-135.488v84.667c0 36.906-30.034 66.941-66.948 66.941h-132.199c-21.472 0-38.939 17.472-38.939 38.946v482.316c0 21.479 17.465 38.945 38.939 38.945h762.425c21.47 0 38.938-17.465 38.938-38.945v-482.318z" />
<glyph unicode="&#xe921;" glyph-name="phone-old" d="M895.132 282.112c-72.704 59.136-182.784 96.768-212.48 61.952-26.88-32.256-51.2-56.576-80.64-53.76-102.144 13.568-177.408 107.52-209.664 155.904-69.888 104.96-53.76 131.84-24.32 147.968 53.76 29.696 80.64 115.712 24.32 180.224-53.76 64.256-150.528 252.416-276.992 152.832-118.272-94.208-147.968-209.664-78.080-373.76 67.328-155.904 411.392-594.176 726.016-612.864 164.096-8.192 258.048 147.968 260.864 193.536 0 40.448-59.136 94.208-129.024 147.968zM946.076 134.144c-16.128-32.256-29.696-53.76-61.952-78.080-24.32-18.944-64.512-45.824-115.712-43.008-290.048 18.944-585.728 406.016-653.056 537.856-32.256 67.328-51.2 153.344-43.008 198.912 13.568 59.136 40.448 91.392 83.456 123.648 59.136 43.008 118.272-43.008 177.408-137.216 21.504-35.072 37.632-67.328-13.568-99.584-43.008-26.88-53.76-91.392-18.944-164.096 48.384-102.144 198.912-260.864 306.432-258.048 59.136 2.816 94.208 48.384 110.336 64.512 21.504 21.504 80.64-13.568 123.648-45.824 51.2-34.56 113.152-85.504 104.96-99.072z" />
<glyph unicode="&#xe922;" glyph-name="back-top" d="M135.68 259.369h161.28v-323.369h430.080v323.369h161.28l-376.32 431.155zM81.92 960h860.16v-107.786h-860.16v107.786z" />
<glyph unicode="&#xe925;" glyph-name="empty" d="M152.978 778.394c0 25.845 20.952 46.812 46.811 46.812h234.058v46.811c0 25.859 20.953 46.811 46.811 46.811h93.624c25.859 0 46.81-20.953 46.81-46.811v-46.811h234.058c25.86 0 46.812-20.968 46.812-46.812v-46.811h-748.984v46.811zM855.15 637.96v-577.341c0-25.86-20.952-46.812-46.81-46.812h-561.739c-25.859 0-46.811 20.953-46.811 46.812v624.152h655.36v-46.811zM387.035 544.336c0 25.845-20.952 46.811-46.811 46.811s-46.811-20.967-46.811-46.811v-390.096c0-25.86 20.952-46.811 46.811-46.811s46.811 20.952 46.811 46.811v390.096zM574.282 544.336c0 25.845-20.954 46.811-46.812 46.811s-46.812-20.967-46.812-46.811v-390.096c0-25.86 20.953-46.811 46.812-46.811s46.812 20.952 46.812 46.811v390.096zM761.527 544.336c0 25.845-20.952 46.811-46.81 46.811-25.86 0-46.812-20.967-46.812-46.811v-390.096c0-25.86 20.952-46.811 46.812-46.811s46.81 20.952 46.81 46.811v390.096z" />
<glyph unicode="&#xe926;" glyph-name="position" d="M512 928c-194.304 0-352-153.536-352-342.848 0-327.104 352-617.152 352-617.152s352 302.464 352 617.152c0 189.312-157.696 342.848-352 342.848zM512 384c-105.984 0-192 86.016-192 192s86.016 192 192 192 192-86.016 192-192-86.016-192-192-192z" />
</font>
</defs>
</svg>
